<?xml version="1.0" encoding="utf-8"?>
<!-- Generator: Adobe Illustrator 16.0.0, SVG Export Plug-In . SVG Version: 6.00 Build 0)  -->
<!DOCTYPE svg PUBLIC "-//W3C//DTD SVG 1.1//EN" "http://www.w3.org/Graphics/SVG/1.1/DTD/svg11.dtd">
<svg version="1.1" id="Layer_1" xmlns="http://www.w3.org/2000/svg" xmlns:xlink="http://www.w3.org/1999/xlink" x="0px" y="0px"
	 width="125.083px" height="35.028px" viewBox="0 0 125.083 35.028" style="enable-background:new 0 0 125.083 35.028;"
	 xml:space="preserve">
<style type="text/css">
<![CDATA[
	.st0{fill:#005B95;}
]]>
</style>
<path class="st0" d="M0,35.028L6.562,0h6.789l8.583,21.891L30.431,0h6.788l6.776,35.027h-7.214l-4.158-21.933l-8.103,21.933h-5.259
	l-8.103-21.933L7.001,35.028H0z"/>
<path class="st0" d="M45.749,0h6.562v35.027h-6.562V0z"/>
<path class="st0" d="M62.167,5.687H54.46V0h21.934v5.687h-7.707v29.341h-6.52V5.687z"/>
<path class="st0" d="M85.105,35.028h-6.563V0h15.584c0.642,0,1.692,0.207,3.153,0.619c1.461,0.436,2.922,1.398,4.382,2.886
	c1.454,1.518,2.181,3.706,2.181,6.564c0,2.978-0.787,5.227-2.362,6.745c-1.575,1.546-3.164,2.522-4.767,2.929
	c-1.604,0.441-2.786,0.663-3.549,0.663l11.651,14.622h-7.888L86.25,20.577V14.27l6.52-0.043h0.353c0.905,0,1.81-0.334,2.715-1.004
	c0.991-0.755,1.486-1.808,1.486-3.153c0-1.226-0.41-2.231-1.229-3.015c-0.841-0.763-1.949-1.144-3.324-1.144h-7.664V35.028z"/>
<path class="st0" d="M104.816,0h20.267v5.687h-13.704v8.979h13.575v5.687h-13.575v8.989h13.704v5.687h-20.267V0z"/>
</svg>
